<svg xmlns="http://www.w3.org/2000/svg" viewBox="0 0 512 512" enable-background="new 0 0 512 512"><style type="text/css">.st0{fill:#3C455C;} .st1{fill:#ffffff;}</style><path class="st0" d="M256 108.6c-81.4 0-147.4 66-147.4 147.4s66 147.4 147.4 147.4h1.9c80.5-1 121.5-66.6 121.5-147.4 0-81.4-42-147.4-123.4-147.4z"/><circle class="st1" cx="256" cy="329.7" r="29.9"/><path class="st1" d="M256 108.6c81.4 0 147.4 66 147.4 147.4 0 80.8-65 146.4-145.5 147.4 39.8-1 71.8-33.6 71.8-73.7 0-40.7-33-73.7-73.7-73.7s-73.7-33-73.7-73.7 33-73.7 73.7-73.7zm29.9 73.7c0-16.5-13.4-29.8-29.9-29.8s-29.9 13.4-29.9 29.8c0 16.5 13.4 29.9 29.9 29.9s29.9-13.4 29.9-29.9z"/><path class="st0" d="M218.5 62.6h75v17.3h-75zM218.5 0h75v17.3h-75zM218.5 31.3h75v17.3h-75zM263 494.7h30.5v17.3h-30.5zM218.5 494.7h30.5v17.3h-30.5zM263 432.1h30.5v17.3h-30.5zM218.5 432.1h30.5v17.3h-30.5zM263 463.4h30.5v17.3h-30.5zM218.5 463.4h30.5v17.3h-30.5zM48.461 101.497l22.132-22.132 12.233 12.233-22.132 22.132zM79.36 70.594l22.132-22.132 12.233 12.233-22.132 22.132zM92.686 145.776l53.033-53.033 12.233 12.233-53.033 53.033zM70.591 123.657l53.032-53.032 12.233 12.233-53.032 53.032zM354.006 407.012l21.567-21.567 12.233 12.233-21.567 21.567zM385.559 375.586l21.567-21.567 12.233 12.233-21.567 21.567zM398.23 451.274l53.032-53.032 12.233 12.233-53.032 53.032zM376.168 429.214l21.567-21.567 12.233 12.233-21.567 21.567zM407.635 397.697l21.567-21.567 12.233 12.233-21.567 21.567zM384.916 135.79l12.233-12.233 22.132 22.132-12.233 12.233zM354.029 104.893l12.233-12.233 22.132 22.132-12.233 12.233zM398.308 60.665l12.233-12.233 53.032 53.032-12.233 12.233zM376.117 82.83l12.233-12.233 53.032 53.032-12.233 12.233zM79.955 441.98l12.233-12.233 21.567 21.567-12.233 12.233zM48.445 410.493l12.233-12.233 21.567 21.567-12.233 12.233zM92.668 366.206l12.233-12.233 53.032 53.032-12.233 12.233zM102.006 419.803l12.233-12.233 21.567 21.567-12.233 12.233zM70.561 388.406l12.233-12.233 21.567 21.567-12.233 12.233zM62.6 218.5h17.3v75h-17.3zM0 218.5h17.3v75h-17.3zM31.3 218.5h17.3v30.5h-17.3zM31.3 263h17.3v30.5h-17.3zM494.7 218.5h17.3v30.5h-17.3zM494.7 263h17.3v30.5h-17.3zM432.1 218.5h17.3v30.5h-17.3zM432.1 263h17.3v30.5h-17.3zM463.4 218.5h17.3v75h-17.3z"/></svg>
