<?xml version="1.0" encoding="utf-8"?>
<!-- Generator: Adobe Illustrator 23.0.2, SVG Export Plug-In . SVG Version: 6.00 Build 0)  -->
<svg version="1.1" id="Layer_1" xmlns="http://www.w3.org/2000/svg" xmlns:xlink="http://www.w3.org/1999/xlink" x="0px" y="0px"
	 viewBox="0 0 512 512" style="enable-background:new 0 0 512 512;" xml:space="preserve">
<style type="text/css">
	.st0{fill:#3C455C;}
	.st1{fill:#f8fafc;}
</style>
<path class="st0" d="M256,108.6c-81.4,0-147.4,66-147.4,147.4c0,81.4,66,147.4,147.4,147.4l1.9,0c80.5-1,121.5-66.6,121.5-147.4
	C379.4,174.6,337.4,108.6,256,108.6z"/>
<g>
	<circle class="st1" cx="256" cy="329.7" r="29.9"/>
	<path class="st1" d="M256,108.6c81.4,0,147.4,66,147.4,147.4c0,80.8-65,146.4-145.5,147.4c39.8-1,71.8-33.6,71.8-73.7
		c0-40.7-33-73.7-73.7-73.7s-73.7-33-73.7-73.7S215.3,108.6,256,108.6z M285.9,182.3c0-16.5-13.4-29.8-29.9-29.8
		s-29.9,13.4-29.9,29.8c0,16.5,13.4,29.9,29.9,29.9S285.9,198.8,285.9,182.3z"/>
</g>
<g>
	<rect x="218.5" y="62.6" class="st0" width="75" height="17.3"/>
	<rect x="218.5" class="st0" width="75" height="17.3"/>
	<rect x="218.5" y="31.3" class="st0" width="75" height="17.3"/>
	<rect x="263" y="494.7" class="st0" width="30.5" height="17.3"/>
	<rect x="218.5" y="494.7" class="st0" width="30.5" height="17.3"/>
	<rect x="263" y="432.1" class="st0" width="30.5" height="17.3"/>
	<rect x="218.5" y="432.1" class="st0" width="30.5" height="17.3"/>
	<rect x="263" y="463.4" class="st0" width="30.5" height="17.3"/>
	<rect x="218.5" y="463.4" class="st0" width="30.5" height="17.3"/>

		<rect x="50" y="87.9" transform="matrix(0.7071 -0.7071 0.7071 0.7071 -49.0482 74.6977)" class="st0" width="31.3" height="17.3"/>

		<rect x="80.9" y="57" transform="matrix(0.7071 -0.7071 0.7071 0.7071 -18.1493 87.4938)" class="st0" width="31.3" height="17.3"/>

		<rect x="87.8" y="116.7" transform="matrix(0.7071 -0.7071 0.7071 0.7071 -51.9157 125.3409)" class="st0" width="75" height="17.3"/>

		<rect x="65.7" y="94.6" transform="matrix(0.7071 -0.7071 0.7071 0.7071 -42.7573 103.2216)" class="st0" width="75" height="17.3"/>

		<rect x="355.7" y="393.7" transform="matrix(0.7071 -0.7071 0.7071 0.7071 -175.8944 380.1426)" class="st0" width="30.5" height="17.3"/>

		<rect x="387.2" y="362.3" transform="matrix(0.7071 -0.7071 0.7071 0.7071 -144.412 393.1927)" class="st0" width="30.5" height="17.3"/>

		<rect x="393.4" y="422.2" transform="matrix(0.7071 -0.7071 0.7071 0.7071 -178.4805 430.9097)" class="st0" width="75" height="17.3"/>

		<rect x="377.8" y="415.9" transform="matrix(0.7071 -0.7071 0.7071 0.7071 -185.0573 402.2732)" class="st0" width="30.5" height="17.3"/>

		<rect x="409.3" y="384.4" transform="matrix(0.7071 -0.7071 0.7071 0.7071 -153.5898 415.3034)" class="st0" width="30.5" height="17.3"/>

		<rect x="393.5" y="125.1" transform="matrix(0.7071 -0.7071 0.7071 0.7071 18.2141 325.5752)" class="st0" width="17.3" height="31.3"/>

		<rect x="362.6" y="94.2" transform="matrix(0.7071 -0.7071 0.7071 0.7071 31.0261 294.6784)" class="st0" width="17.3" height="31.3"/>

		<rect x="422.3" y="43.6" transform="matrix(0.7071 -0.7071 0.7071 0.7071 68.8697 328.4433)" class="st0" width="17.3" height="75"/>

		<rect x="400.1" y="65.7" transform="matrix(0.7071 -0.7071 0.7071 0.7071 46.7498 319.2846)" class="st0" width="17.3" height="75"/>

		<rect x="88.2" y="431.4" transform="matrix(0.7071 -0.7071 0.7071 0.7071 -287.4546 199.3031)" class="st0" width="17.3" height="30.5"/>

		<rect x="56.7" y="399.9" transform="matrix(0.7071 -0.7071 0.7071 0.7071 -274.4166 167.8161)" class="st0" width="17.3" height="30.5"/>

		<rect x="116.7" y="349.1" transform="matrix(0.7071 -0.7071 0.7071 0.7071 -236.6994 201.8756)" class="st0" width="17.3" height="75"/>

		<rect x="110.3" y="409.2" transform="matrix(0.7071 -0.7071 0.7071 0.7071 -265.332 208.4506)" class="st0" width="17.3" height="30.5"/>

		<rect x="78.8" y="377.8" transform="matrix(0.7071 -0.7071 0.7071 0.7071 -252.3009 176.9828)" class="st0" width="17.3" height="30.5"/>
	<rect x="62.6" y="218.5" class="st0" width="17.3" height="75"/>
	<rect y="218.5" class="st0" width="17.3" height="75"/>
	<rect x="31.3" y="218.5" class="st0" width="17.3" height="30.5"/>
	<rect x="31.3" y="263" class="st0" width="17.3" height="30.5"/>
	<rect x="494.7" y="218.5" class="st0" width="17.3" height="30.5"/>
	<rect x="494.7" y="263" class="st0" width="17.3" height="30.5"/>
	<rect x="432.1" y="218.5" class="st0" width="17.3" height="30.5"/>
	<rect x="432.1" y="263" class="st0" width="17.3" height="30.5"/>
	<rect x="463.4" y="218.5" class="st0" width="17.3" height="75"/>
</g>
</svg>
