<svg xmlns="http://www.w3.org/2000/svg" xmlns:xlink="http://www.w3.org/1999/xlink" version="1.1" id="Layer_1" x="0px" y="0px" width="595.28px" height="841.89px" viewBox="0 0 595.28 841.89" enable-background="new 0 0 595.28 841.89" xml:space="preserve"><style>.style0{clip-rule:	evenodd;fill-rule:	evenodd;}.style1{fill-rule:	evenodd;clip-rule:	evenodd;fill:	#FFFFFF;}</style><g><path d="M172.5 211c-3 52.662-6 110.339-9 163c1 0 2 0 3 0 c4.757-82.467 119.767-117.294 202-82c30.945 13.3 53.7 37.1 64 71c2.174 7.2 0.7 34.5 4 40 c2.333 1.3 4.7 2.7 7 4c13.206 20.7 7.4 54.3 12 84c1.658 10.6 9.2 71.2 9 72 c-12.754 28.103-91.322 68.202-118 92c-27.997 0.334-56.003 0.666-84 1c-26.331-14.998-52.669-30.002-79-45 c-19.691-11.605-44.427-18.28-58-36c3.178-8.402 16.827-93.854 13-104c-2.23-5.599-1.179-3.204-3.197-10.09 c-2.183-23.099-3.136-33.912-2.803-51.91c2.66-16.762 8.874-22.514 16-33c1.667-37.663 3.333-75.337 5-113 c0.333-16.998 0.667-39.001 1-56L172.5 211z" class="style0"/><path d="M161.5 214c0.032 69.943-9.104 140.833-10 208c1 0 2 0 3 0 c3.667-68.993 7.333-138.007 11-207C164.167 214.7 162.8 214.3 161.5 214z" class="style1"/><path d="M281.5 288c-12.332 2-24.668 4-37 6 c-51.179 24-70.827 49.155-76 108c60.708 3.4 107.9 4 164 4c32.841 0 64.9 0.2 97-3C430.603 314.9 362 288 281.5 288z " class="style1"/><path d="M161.5 382c-1 15.332-2 30.668-3 46c-4-0.666-8-1.334-12-2 c0.333-13.332 0.667-26.668 1-40c0 0.7 0 1.3 0 2c-16.94 21.518-7.278 74.296-2 97c2 0.3 4 0.7 6 1 c-3 30.664-6 61.336-9 92c-2.667-2.666-5.333-5.334-8-8c-0.333 0.666-0.667 1.334-1 2c3.667 3.7 7.3 7.3 11 11 c1.502-67.17 15.161-137.23 22-201C164.833 382 163.2 382 161.5 382z" class="style1"/><path d="M431.5 419c-0.334 4.333-0.666 8.667-1 13 c-31.664 8.666-63.336 17.334-95 26c-1.333 63.327-2.667 126.673-4 190c9.374 0.8 13.1 0.5 13-9 c-3.693-13.327-1.04-35.307 1-48c10.349-64.408 28.248-130.276 91-140c0.173-11.247 0.543-35.63-5-43c-23.998 1-48.002 2-72 3 c-75.525 2.728-133.451-2.854-193-3c-1.333 13.665-2.667 27.335-4 41c77.016 8.4 95.5 109.1 94 196 c3.333 1.3 6.7 2.7 10 4c1-64.327 2-128.673 3-193c-37.831-0.548-70.483-15.043-101-24c0-3.999 0-8 0-12 c18.332 1.3 36.7 2.7 55 4C291.414 434.1 367.3 423.4 431.5 419z" class="style1"/><path d="M438.5 417c4.666 50.7 9.3 101.3 14 152 c0-0.666 0-1.334 0-2c1.666-2 3.334-4 5-6C447.058 524.6 456.8 445.1 438.5 417z" class="style1"/><path d="M143.5 489c-0.308 15.901-10.841 68.447-5 77c0.333 0 0.7 0 1 0 c2.333-25.331 4.667-50.669 7-76C145.5 489.7 144.5 489.3 143.5 489z" class="style1"/><path d="M198.5 509c-18.043 20.259-31.538 49.527-37 82 c29.997 16.7 60 33.3 90 50C252.588 594 239 509.3 198.5 509z" class="style1"/><path d="M385.5 517c-27.317 22.836-28.131 54.403-35 99 c-0.334 8.666-0.666 17.334-1 26c0.666-0.666 1.334-1.334 2-2c28.997-19.998 58.003-40.002 87-60 C428.792 557 417.9 516.6 385.5 517z" class="style1"/></g></svg>